# xmcd
#
# Track frame offsets:
#	150
#	16043
#	27511
#	47246
#	64826
#	76156
#	89923
#	108243
#	120263
#	133726
#	147449
#	167464
#	179208
#	188485
#	200924
#	216411
#	230255
#	244572
#	256110
#	274099
#
# Disc length: 3886 seconds
#
# Revision: 0
# Processed by: cddbd v1.5.2PL0 Copyright (c) Steve Scherf et al.
# Submitted via: EasyCDDAExtractor 16.0.6.1
#
DISCID=1e0f2c14
DTITLE=Nos Tempos do Xadrezinho Vol. II
DYEAR=1900
DGENRE=
TTITLE0=The Beatles - Don't Let Me Down
TTITLE1=Bread - If
TTITLE2=James Taylor - You've Got a Friend
TTITLE3=Bee Gees - New Can You Mend a Broken Heart
TTITLE4=Donavan - Sealed With a Kiss
TTITLE5=Stevie Wonder - Yester-me, Yester-You, Yesterday
TTITLE6=Tony Phillips - Jet'aime Moi Non Plus
TTITLE7=Lulu - To Sir With Love
TTITLE8=The Beatles - Something
TTITLE9=Simon and Garfunkell - The Sounds Of Silence
TTITLE10=J. Ann Belwin - The House Of The Rising Sun
TTITLE11=The Platters - Smoke Get's In Your Eyes
TTITLE12=Crazy Elephants - Gimme Gimme Good Lovin
TTITLE13=Tommy James - Mony Mony
TTITLE14=George Harrison - My Sweet Lord
TTITLE15=Joe South - Rose Garden
TTITLE16=J. Zack - Evil Ways
TTITLE17=P. Leka - Na Na Hey Hey, Kiss Him Goodbye
TTITLE18=B.R.M. Gibb - How Deep Is Your Love
TTITLE19=Tony Winter - A Wide Shade Of Pale
EXTD=
EXTT0=
EXTT1=
EXTT2=
EXTT3=
EXTT4=
EXTT5=
EXTT6=
EXTT7=
EXTT8=
EXTT9=
EXTT10=
EXTT11=
EXTT12=
EXTT13=
EXTT14=
EXTT15=
EXTT16=
EXTT17=
EXTT18=
EXTT19=
PLAYORDER=
